<svg id="visual" viewBox="0 0 960 540" width="960" height="540" xmlns="http://www.w3.org/2000/svg" xmlns:xlink="http://www.w3.org/1999/xlink" version="1.1"><rect x="0" y="0" width="960" height="540" fill="#001220"></rect><path d="M0 242L17.8 245.5C35.7 249 71.3 256 106.8 268.3C142.3 280.7 177.7 298.3 213.2 302.3C248.7 306.3 284.3 296.7 320 288C355.7 279.3 391.3 271.7 426.8 270.3C462.3 269 497.7 274 533.2 285.3C568.7 296.7 604.3 314.3 640 311.3C675.7 308.3 711.3 284.7 746.8 278C782.3 271.3 817.7 281.7 853.2 293.8C888.7 306 924.3 320 942.2 327L960 334L960 541L942.2 541C924.3 541 888.7 541 853.2 541C817.7 541 782.3 541 746.8 541C711.3 541 675.7 541 640 541C604.3 541 568.7 541 533.2 541C497.7 541 462.3 541 426.8 541C391.3 541 355.7 541 320 541C284.3 541 248.7 541 213.2 541C177.7 541 142.3 541 106.8 541C71.3 541 35.7 541 17.8 541L0 541Z" fill="#c62368"></path><path d="M0 345L17.8 333C35.7 321 71.3 297 106.8 302.2C142.3 307.3 177.7 341.7 213.2 346.7C248.7 351.7 284.3 327.3 320 315C355.7 302.7 391.3 302.3 426.8 310.5C462.3 318.7 497.7 335.3 533.2 334.2C568.7 333 604.3 314 640 302.2C675.7 290.3 711.3 285.7 746.8 294C782.3 302.3 817.7 323.7 853.2 335C888.7 346.3 924.3 347.7 942.2 348.3L960 349L960 541L942.2 541C924.3 541 888.7 541 853.2 541C817.7 541 782.3 541 746.8 541C711.3 541 675.7 541 640 541C604.3 541 568.7 541 533.2 541C497.7 541 462.3 541 426.8 541C391.3 541 355.7 541 320 541C284.3 541 248.7 541 213.2 541C177.7 541 142.3 541 106.8 541C71.3 541 35.7 541 17.8 541L0 541Z" fill="#d23467"></path><path d="M0 368L17.8 368.2C35.7 368.3 71.3 368.7 106.8 363.2C142.3 357.7 177.7 346.3 213.2 341.3C248.7 336.3 284.3 337.7 320 335.3C355.7 333 391.3 327 426.8 338C462.3 349 497.7 377 533.2 379.7C568.7 382.3 604.3 359.7 640 356.2C675.7 352.7 711.3 368.3 746.8 371C782.3 373.7 817.7 363.3 853.2 362C888.7 360.7 924.3 368.3 942.2 372.2L960 376L960 541L942.2 541C924.3 541 888.7 541 853.2 541C817.7 541 782.3 541 746.8 541C711.3 541 675.7 541 640 541C604.3 541 568.7 541 533.2 541C497.7 541 462.3 541 426.8 541C391.3 541 355.7 541 320 541C284.3 541 248.7 541 213.2 541C177.7 541 142.3 541 106.8 541C71.3 541 35.7 541 17.8 541L0 541Z" fill="#de4467"></path><path d="M0 372L17.8 378.8C35.7 385.7 71.3 399.3 106.8 399.5C142.3 399.7 177.7 386.3 213.2 388.8C248.7 391.3 284.3 409.7 320 416.8C355.7 424 391.3 420 426.8 411.8C462.3 403.7 497.7 391.3 533.2 389C568.7 386.7 604.3 394.3 640 403.7C675.7 413 711.3 424 746.8 423.7C782.3 423.3 817.7 411.7 853.2 402C888.7 392.3 924.3 384.7 942.2 380.8L960 377L960 541L942.2 541C924.3 541 888.7 541 853.2 541C817.7 541 782.3 541 746.8 541C711.3 541 675.7 541 640 541C604.3 541 568.7 541 533.2 541C497.7 541 462.3 541 426.8 541C391.3 541 355.7 541 320 541C284.3 541 248.7 541 213.2 541C177.7 541 142.3 541 106.8 541C71.3 541 35.7 541 17.8 541L0 541Z" fill="#e85467"></path><path d="M0 412L17.8 413C35.7 414 71.3 416 106.8 415.8C142.3 415.7 177.7 413.3 213.2 414.7C248.7 416 284.3 421 320 431C355.7 441 391.3 456 426.8 460.3C462.3 464.7 497.7 458.3 533.2 459.3C568.7 460.3 604.3 468.7 640 467C675.7 465.3 711.3 453.7 746.8 445.3C782.3 437 817.7 432 853.2 434.2C888.7 436.3 924.3 445.7 942.2 450.3L960 455L960 541L942.2 541C924.3 541 888.7 541 853.2 541C817.7 541 782.3 541 746.8 541C711.3 541 675.7 541 640 541C604.3 541 568.7 541 533.2 541C497.7 541 462.3 541 426.8 541C391.3 541 355.7 541 320 541C284.3 541 248.7 541 213.2 541C177.7 541 142.3 541 106.8 541C71.3 541 35.7 541 17.8 541L0 541Z" fill="#f16367"></path><path d="M0 483L17.8 482.3C35.7 481.7 71.3 480.3 106.8 479C142.3 477.7 177.7 476.3 213.2 474.7C248.7 473 284.3 471 320 471.8C355.7 472.7 391.3 476.3 426.8 483C462.3 489.7 497.7 499.3 533.2 499.7C568.7 500 604.3 491 640 487.2C675.7 483.3 711.3 484.7 746.8 488.3C782.3 492 817.7 498 853.2 495.2C888.7 492.3 924.3 480.7 942.2 474.8L960 469L960 541L942.2 541C924.3 541 888.7 541 853.2 541C817.7 541 782.3 541 746.8 541C711.3 541 675.7 541 640 541C604.3 541 568.7 541 533.2 541C497.7 541 462.3 541 426.8 541C391.3 541 355.7 541 320 541C284.3 541 248.7 541 213.2 541C177.7 541 142.3 541 106.8 541C71.3 541 35.7 541 17.8 541L0 541Z" fill="#fa7268"></path></svg>